<?xml version="1.0" encoding="UTF-8" standalone="no"?>
<svg width="28px" height="28px" viewBox="0 0 28 28" version="1.1" xmlns="http://www.w3.org/2000/svg" xmlns:xlink="http://www.w3.org/1999/xlink" xmlns:sketch="http://www.bohemiancoding.com/sketch/ns">
    <!-- Generator: Sketch 3.2.2 (9983) - http://www.bohemiancoding.com/sketch -->
    <title>Fill 15</title>
    <desc>Created with Sketch.</desc>
    <defs></defs>
    <g id="Page-1" stroke="none" stroke-width="1" fill="none" fill-rule="evenodd" sketch:type="MSPage">
        <path d="M1.5454433,0 C0.691677938,0 0,0.691675347 0,1.5453326 L0,26.4546674 C0,27.3081148 0.691677938,28 1.5454433,28 L14.9556864,28 L14.9556864,17.1569687 L11.3067784,17.1569687 L11.3067784,12.9311712 L14.9556864,12.9311712 L14.9556864,9.81480288 C14.9556864,6.19822102 17.1644816,4.22894482 20.3908083,4.22894482 C21.9361467,4.22894482 23.2643194,4.34403171 23.6515458,4.39543789 L23.6515458,8.17494586 L21.413795,8.17599496 C19.6592642,8.17599496 19.3195625,9.00971921 19.3195625,10.2331862 L19.3195625,12.9311712 L23.5040409,12.9311712 L22.9591334,17.1569687 L19.3195625,17.1569687 L19.3195625,28 L26.4546616,28 C27.3081122,28 28,27.3081148 28,26.4546674 L28,1.5453326 C28,0.691675347 27.3081122,0 26.4546616,0 L1.5454433,0 Z" id="Fill-15" fill="#192930" sketch:type="MSShapeGroup"></path>
    </g>
</svg>