<?xml version="1.0" encoding="UTF-8" standalone="no"?>
<svg width="35px" height="28px" viewBox="0 0 35 28" version="1.1" xmlns="http://www.w3.org/2000/svg" xmlns:xlink="http://www.w3.org/1999/xlink" xmlns:sketch="http://www.bohemiancoding.com/sketch/ns">
    <!-- Generator: Sketch 3.2.2 (9983) - http://www.bohemiancoding.com/sketch -->
    <title>Fill 1</title>
    <desc>Created with Sketch.</desc>
    <defs></defs>
    <g id="Page-1" stroke="none" stroke-width="1" fill="none" fill-rule="evenodd" sketch:type="MSPage">
        <path d="M10.9828467,28 C6.93677007,28 3.17069343,26.8341704 0,24.836 C0.560510949,24.9010404 1.13085766,24.9343139 1.70912409,24.9343139 C5.06580292,24.9343139 8.15512774,23.8084126 10.6071715,21.9196054 C7.47198905,21.8627265 4.82604015,19.8266368 3.91437956,17.0286457 C4.35175182,17.1108879 4.80062044,17.1549596 5.26226277,17.1549596 C5.91576642,17.1549596 6.54870438,17.0689507 7.1499635,16.9079821 C3.87222628,16.2610942 1.40268248,13.4146368 1.40268248,10.0024036 C1.40268248,9.9727713 1.40268248,9.94326457 1.40319343,9.91388341 C2.36927007,10.4413632 3.47394161,10.7581525 4.6484854,10.7946906 C2.72604015,9.53180269 1.46105839,7.37617937 1.46105839,4.93289686 C1.46105839,3.64226009 1.81437956,2.4324843 2.43109489,1.39234081 C5.96481752,5.65311211 11.2440693,8.45687892 17.1986679,8.75056502 C17.0765511,8.23513901 17.0130657,7.69761435 17.0130657,7.14565022 C17.0130657,3.25641256 20.2210584,0.103210762 24.1779745,0.103210762 C26.2386314,0.103210762 28.1006569,0.958529148 29.4076642,2.32726457 C31.039635,2.01135426 32.5729927,1.42523767 33.957281,0.61826009 C33.4223175,2.26272646 32.2863504,3.64288789 30.8070255,4.51452915 C32.2563321,4.34426906 33.6371715,3.96570404 34.9220803,3.40557848 C33.9614964,4.81788341 32.7467153,6.05829596 31.3469708,7.0512287 C31.3607664,7.35320179 31.3676642,7.65693274 31.3676642,7.96229596 C31.3676642,17.2687175 24.1612409,28 10.9828467,28" id="Fill-1" fill="#192930" sketch:type="MSShapeGroup"></path>
    </g>
</svg>