<?xml version="1.0" encoding="UTF-8" standalone="no"?>
<svg width="13px" height="13px" viewBox="0 0 13 13" version="1.1" xmlns="http://www.w3.org/2000/svg" xmlns:xlink="http://www.w3.org/1999/xlink" xmlns:sketch="http://www.bohemiancoding.com/sketch/ns">
    <!-- Generator: Sketch 3.2.2 (9983) - http://www.bohemiancoding.com/sketch -->
    <title>Untitled</title>
    <desc>Created with Sketch.</desc>
    <defs></defs>
    <g id="Page-1" stroke="none" stroke-width="1" fill="none" fill-rule="evenodd" sketch:type="MSPage">
        <path d="M6.5,13 C10.0898509,13 13,10.0898509 13,6.5 C13,2.91014913 10.0898509,0 6.5,0 C2.91014913,0 0,2.91014913 0,6.5 C0,10.0898509 2.91014913,13 6.5,13 Z" id="Oval-8" fill="#93BB3C" sketch:type="MSShapeGroup"></path>
        <path d="M9.464282,5.18301815 C9.51694417,5.13035597 9.51694417,5.04007796 9.464282,4.98741578 L8.51636285,4.03949663 C8.46370067,3.98683446 8.37342266,3.98683446 8.32076048,4.03949663 L5.43938718,6.9283931 L4.18301815,5.66450089 C4.13035597,5.61183872 4.04007796,5.61183872 3.98741578,5.66450089 L3.03949663,6.61242005 C2.98683446,6.66508222 2.98683446,6.75536024 3.03949663,6.80802241 L5.341586,9.11011178 C5.37167867,9.13268129 5.40177135,9.14772762 5.43938718,9.14772762 C5.47700302,9.14772762 5.5070957,9.13268129 5.53718837,9.11011178 L9.464282,5.18301815 Z" id="check" fill="#3A4A18" sketch:type="MSShapeGroup"></path>
    </g>
</svg>