<?xml version="1.0" encoding="UTF-8" standalone="no"?>
<svg width="130px" height="140px" viewBox="0 0 130 140" version="1.1" xmlns="http://www.w3.org/2000/svg" xmlns:xlink="http://www.w3.org/1999/xlink" xmlns:sketch="http://www.bohemiancoding.com/sketch/ns">
    <!-- Generator: Sketch 3.2.2 (9983) - http://www.bohemiancoding.com/sketch -->
    <title>Head Illo</title>
    <desc>Created with Sketch.</desc>
    <defs></defs>
    <g id="Page-1" stroke="none" stroke-width="1" fill="none" fill-rule="evenodd" sketch:type="MSPage">
        <g id="Homescreen" sketch:type="MSArtboardGroup" transform="translate(-655.000000, -269.000000)">
            <g id="Head-Illo" sketch:type="MSLayerGroup" transform="translate(654.000000, 269.000000)">
                <g id="Imported-Layers" transform="translate(0.500000, 0.000000)" sketch:type="MSShapeGroup">
                    <path d="M120,84 C120,114.8 95.475,140 65.5,140 C35.525,140 11,114.8 11,84 L11,56 C11,25.2 35.525,0 65.5,0 C95.475,0 120,25.2 120,56 L120,84" id="Fill-1" fill="#72C2D4"></path>
                    <path d="M65.249,0.007 L64,139.961 C64.5,139.975 64.997,140 65.5,140 C95.475,140 120,114.8 120,84 L120,56 C120,25.2 95.475,0 65.5,0 C65.416,0 65.333,0.006 65.249,0.007 Z" id="Fill-2" fill="#42A3B8"></path>
                    <path d="M130.333,70.333 C130.333,76.04 125.707,80.667 120,80.667 C114.293,80.667 109.667,76.04 109.667,70.333 C109.667,64.626 114.293,60 120,60 C125.707,60 130.333,64.626 130.333,70.333" id="Fill-7" fill="#42A3B8"></path>
                    <path d="M21.333,70.333 C21.333,76.04 16.707,80.667 11,80.667 C5.293,80.667 0.667,76.04 0.667,70.333 C0.667,64.626 5.293,60 11,60 C16.707,60 21.333,64.626 21.333,70.333" id="Fill-8" fill="#72C2D4"></path>
                </g>
                <path d="M57.770003,98.2049989 C57.770003,102.075 60.9650035,105.27 64.8350042,105.27 C68.7050048,105.27 71.9000053,102.075 71.9000053,98.2049989 C71.9000053,94.3349983 68.7050048,91.1399977 64.8350042,91.1399977 C60.9650035,91.1399977 57.770003,94.3349983 57.770003,98.2049989 L57.770003,98.2049989 Z M83.3300072,57.9299923 C83.3300072,46.9049905 74.8250058,40.3799894 64.3850041,40.3799894 C58.9400032,40.3799894 54.3050024,42.2249897 50.8850019,45.3749902 C47.2850013,48.7049908 45.710001,53.1149915 45.710001,56.039992 C45.710001,57.8849923 46.1600011,59.1899925 47.1050012,60.1799927 C48.0500014,61.1699928 49.4000016,61.7549929 51.0200019,61.7549929 C52.7300022,61.7549929 54.0800024,61.3949929 55.1150026,60.3149927 C55.7450027,59.5949926 56.4200028,58.3799924 56.7350028,57.3449922 C57.2750029,55.5899919 57.905003,54.1949917 58.9850032,53.0699915 C60.4250034,51.5399912 62.2250037,50.9099911 64.5200041,50.9099911 C68.8400048,50.9099911 71.6300053,53.9699916 71.6300053,57.9299923 C71.6300053,60.4049927 70.4600051,62.384993 69.0200048,64.1849933 L62.3150037,72.6449947 C59.7950033,75.7949952 59.0750032,78.0899956 59.0750032,80.834996 C59.0750032,82.4549963 59.5250033,83.8499965 60.4700034,84.8399967 C61.5500036,85.9649969 62.9450038,86.639997 64.8350042,86.639997 C66.7250045,86.639997 68.1200047,86.0549969 69.2000049,84.9299967 C70.055005,84.0299966 70.6400051,82.8599964 71.0000052,81.5549962 C71.4950052,79.6649958 71.9900053,78.4049956 73.5650056,76.3349953 L78.9650065,69.2699941 C81.7100069,65.6699936 83.3300072,62.9249931 83.3300072,57.9299923 L83.3300072,57.9299923 Z" id="?" fill="#FFFFFF" sketch:type="MSShapeGroup"></path>
            </g>
        </g>
    </g>
</svg>