<?xml version="1.0" encoding="UTF-8" standalone="no"?>
<svg width="25px" height="23px" viewBox="0 0 25 23" version="1.1" xmlns="http://www.w3.org/2000/svg" xmlns:xlink="http://www.w3.org/1999/xlink" xmlns:sketch="http://www.bohemiancoding.com/sketch/ns">
    <!-- Generator: Sketch 3.2.2 (9983) - http://www.bohemiancoding.com/sketch -->
    <title>Logo | Mobile | Color</title>
    <desc>Created with Sketch.</desc>
    <defs></defs>
    <g id="Page-1" stroke="none" stroke-width="1" fill="none" fill-rule="evenodd" sketch:type="MSPage">
        <g id="Logo-|-Mobile-|-Color" sketch:type="MSLayerGroup">
            <g id="Logo---Border" sketch:type="MSShapeGroup">
                <rect id="Rectangle-11" fill="#F0F0F0" x="0" y="0" width="25" height="3" rx="0.555555556"></rect>
                <rect id="Rectangle-11" fill="#93BB3C" x="0" y="5" width="3" height="3" rx="0.555555556"></rect>
                <rect id="Rectangle-11" fill="#F0F0F0" x="5" y="2" width="3" height="20" rx="0.555555556"></rect>
                <path d="M10,7.04677519 C10,6.74479959 10,6.24304429 10,5.94835824 L10,5.55261611 C10,5.24741466 10.2478381,5 10.5516475,5 L24.4483525,5 C24.753019,5 25,5.25577831 25,5.55024624 L25,7.44975376 C25,7.75364637 24.7521619,8 24.4483525,8 L10.5516475,8 C10.246981,8 10,7.75119864 10,7.43497578 L10,7.04677519 Z" id="Rectangle-13" fill="#FACA33"></path>
                <rect id="Rectangle-19" fill="#42A3B8" x="0" y="10" width="3" height="3" rx="0.555555556"></rect>
                <rect id="Rectangle-18" fill="#F0F0F0" x="7" y="10" width="13" height="3" rx="0.555555556"></rect>
                <rect id="Rectangle-24" fill="#EE5443" x="0" y="15" width="3" height="3" rx="0.555555556"></rect>
                <rect id="Rectangle-21" fill="#42A3B8" x="10" y="15" width="15" height="3" rx="0.555555556"></rect>
                <rect id="Rectangle-29" fill="#F0F0F0" x="0" y="20" width="13" height="3" rx="0.555555556"></rect>
                <rect id="Rectangle-25" fill="#93BB3C" x="16" y="20" width="9" height="3" rx="0.555555556"></rect>
                <rect id="Rectangle-25" fill="#EE5443" x="22" y="10" width="3" height="3" rx="0.555555556"></rect>
            </g>
        </g>
    </g>
</svg>