<?xml version="1.0" encoding="utf-8"?>
<!-- Generator: Adobe Illustrator 17.0.0, SVG Export Plug-In . SVG Version: 6.00 Build 0)  -->
<!DOCTYPE svg PUBLIC "-//W3C//DTD SVG 1.1//EN" "http://www.w3.org/Graphics/SVG/1.1/DTD/svg11.dtd">
<svg version="1.1" id="Layer_1" xmlns="http://www.w3.org/2000/svg" xmlns:xlink="http://www.w3.org/1999/xlink" x="0px" y="0px"
	 width="170px" height="140px" viewBox="0 0 170 140" enable-background="new 0 0 170 140" xml:space="preserve">
<g>
	<ellipse fill="#9C812A" cx="114" cy="76" rx="15" ry="25"/>
	<rect x="103" y="51" fill="#9C812A" width="13" height="50"/>
	<ellipse fill="#FACA33" cx="105" cy="76" rx="15" ry="25"/>
	<ellipse fill="#FFE182" cx="105" cy="76" rx="9" ry="15"/>
</g>
<path fill="#93BB3C" stroke="#93BB3C" stroke-width="3" stroke-linecap="round" stroke-linejoin="round" stroke-miterlimit="10" d="
	M40.562,44.875"/>
<g>
	<g>
		<path fill="#93BB3C" d="M35.6,117c-0.828,0-1.6-0.672-1.6-1.5v-74c0-0.392,0.203-0.768,0.477-1.048l18.584-19
			C53.343,21.163,53.755,21,54.159,21H83c0.397,0,0.779,0.158,1.061,0.439l18.5,18.5C102.842,40.221,103,40.603,103,41v74.5
			c0,0.828-0.672,1.5-1.5,1.5H35.6z"/>
		<path fill="#93BB3C" d="M83,23l18,18v75H36V41.5L54.159,23H83 M83,20H54.159c-0.808,0-1.582,0.076-2.146,0.654L33.654,39.529
			C33.106,40.089,33,40.717,33,41.5v74c0,1.657,0.943,3.5,2.6,3.5h65.9c1.657,0,2.5-1.843,2.5-3.5V41
			c0-0.796-0.066-1.559-0.629-2.121l-18.375-18.25C84.434,20.066,83.796,20,83,20L83,20z"/>
	</g>
	<circle fill="#BCDE73" cx="68.875" cy="40.25" r="6"/>
	<g enable-background="new    ">
		<path fill="#BCDE73" d="M62.381,89.339c1.98,1.04,3.281,1.48,5.401,1.48c3.281,0,5.061-1.32,5.061-3.581
			c0-0.98-0.28-1.82-0.86-2.381c-0.5-0.479-1.22-0.78-2.561-0.979l-3.401-0.501c-2.44-0.359-4.201-1.1-5.521-2.38
			c-1.38-1.341-2.041-3.201-2.041-5.581c0-4.321,2.721-7.562,7.361-8.422v-0.94c0-1.04,0.04-1.44,0.3-1.94
			c0.34-0.62,1.02-1.021,1.88-1.021s1.541,0.4,1.88,1.021c0.26,0.5,0.3,0.9,0.3,1.94v0.8c1.76,0.181,3.161,0.62,4.641,1.301
			c1.34,0.62,2.281,1.601,2.281,2.78c0,0.561-0.22,1.2-0.64,1.721c-0.4,0.46-0.94,0.76-1.661,0.76c-0.66,0-1.42-0.3-2.08-0.64
			c-1.521-0.801-2.841-1.12-4.501-1.12c-2.941,0-4.381,1.62-4.381,3.44c0,0.88,0.22,1.62,0.82,2.181c0.6,0.54,1.32,0.9,2.641,1.1
			l3.341,0.48c2.601,0.38,4.261,1.08,5.461,2.221c1.521,1.42,2.201,3.48,2.201,6.021c0,4.721-3.381,7.701-8.122,8.441v1.7
			c0,1.04-0.04,1.461-0.3,1.94c-0.34,0.62-1.02,1.021-1.88,1.021s-1.541-0.4-1.88-1.021c-0.26-0.479-0.3-0.9-0.3-1.94V95.68
			c-2.02-0.16-3.5-0.58-5.181-1.4c-1.821-0.859-2.841-1.66-2.841-3.26c0-0.601,0.28-1.341,0.76-1.821c0.46-0.46,0.98-0.62,1.56-0.62
			C60.761,88.578,61.321,88.778,62.381,89.339z"/>
	</g>
</g>
<g>
	<ellipse fill="#9C812A" cx="116.333" cy="107.88" rx="19.658" ry="11.795"/>
	<rect x="97" y="99" fill="#9C812A" width="39" height="10"/>
	<ellipse fill="#FACA33" cx="116.333" cy="100.803" rx="19.658" ry="11.795"/>
	<ellipse fill="#FFE182" cx="116.333" cy="100.803" rx="11.795" ry="7.077"/>
</g>
<g>
	<ellipse fill="#9C812A" cx="90.494" cy="121.916" rx="14.736" ry="8.842"/>
	<rect x="76" y="116" fill="#9C812A" width="29" height="7"/>
	<ellipse fill="#FACA33" cx="90.494" cy="116.611" rx="14.736" ry="8.842"/>
	<ellipse fill="#FFE182" cx="90.494" cy="116.611" rx="8.842" ry="5.305"/>
</g>
</svg>
